<?xml version="1.0" encoding="UTF-8" standalone="no"?>
<!DOCTYPE svg PUBLIC "-//W3C//DTD SVG 1.1//EN" "http://www.w3.org/Graphics/SVG/1.1/DTD/svg11.dtd">
<svg width="100%" height="100%" viewBox="0 0 731 886" version="1.1" 
  xmlns="http://www.w3.org/2000/svg" 
  xmlns:xlink="http://www.w3.org/1999/xlink"
  xmlns:serif="http://www.serif.com/"
  style="fill-rule:evenodd;clip-rule:evenodd;stroke-linejoin:round;stroke-miterlimit:2;">
  <style type="text/css">
    path { fill: #09090b; }
    @media (prefers-color-scheme: dark) {
      path { fill: #fafafa; }
    }
  </style>
  <path d="M80.943,505.746l-80.943,0l0,-126.436l80.943,-0c34.915,-0 63.219,-28.304 63.219,-63.219l-0,-63.218c-0,-104.743 84.911,-189.655 189.654,-189.655l178.066,0l0,-63.218l218.995,126.437l-218.995,126.436l0,-63.218l-178.066,-0c-34.914,-0 -63.218,28.304 -63.218,63.218l0,126.437l182.512,-0l0,-63.219l218.995,126.437l-218.995,126.437l0,-63.219l-182.512,0l0,126.437c0,34.914 28.304,63.218 63.218,63.218l178.066,0l0,-63.218l218.995,126.436l-218.995,126.437l0,-63.218l-178.066,-0c-104.743,-0 -189.654,-84.912 -189.654,-189.655l-0,-63.218c-0,-34.915 -28.304,-63.219 -63.219,-63.219Z"/>
</svg>