<?xml version="1.0" encoding="UTF-8" standalone="no"?><!DOCTYPE svg PUBLIC "-//W3C//DTD SVG 1.1//EN" "http://www.w3.org/Graphics/SVG/1.1/DTD/svg11.dtd"><svg width="100%" height="100%" viewBox="0 0 821 223" version="1.1" xmlns="http://www.w3.org/2000/svg" xmlns:xlink="http://www.w3.org/1999/xlink" xml:space="preserve" xmlns:serif="http://www.serif.com/" style="fill-rule:evenodd;clip-rule:evenodd;stroke-linejoin:round;stroke-miterlimit:2;"><path d="M265.301,206.661l-39.812,-0l-44.6,-130.272l37.545,-0l27.465,88.948l0.504,-0l27.465,-88.948l35.529,-0l-44.096,130.272Zm57.451,-90.208c0.504,-8.399 2.604,-15.371 6.299,-20.914c3.696,-5.544 8.4,-9.995 14.111,-13.355c5.712,-3.36 12.137,-5.753 19.276,-7.181c7.14,-1.428 14.321,-2.142 21.544,-2.142c6.552,0 13.187,0.462 19.907,1.386c6.719,0.924 12.85,2.73 18.394,5.417c5.543,2.688 10.079,6.426 13.607,11.213c3.527,4.788 5.291,11.129 5.291,19.025l0,67.781c0,5.88 0.336,11.507 1.008,16.883c0.672,5.375 1.848,9.407 3.528,12.095l-36.285,-0c-0.672,-2.016 -1.218,-4.074 -1.638,-6.174c-0.42,-2.099 -0.714,-4.241 -0.882,-6.425c-5.711,5.879 -12.431,9.995 -20.158,12.347c-7.727,2.352 -15.622,3.527 -23.686,3.527c-6.215,0 -12.011,-0.755 -17.386,-2.267c-5.376,-1.512 -10.079,-3.864 -14.111,-7.056c-4.031,-3.191 -7.181,-7.223 -9.449,-12.095c-2.268,-4.871 -3.402,-10.667 -3.402,-17.386c0,-7.391 1.302,-13.481 3.906,-18.268c2.604,-4.788 5.963,-8.61 10.079,-11.465c4.116,-2.856 8.819,-4.998 14.111,-6.426c5.291,-1.428 10.625,-2.561 16,-3.401c5.376,-0.84 10.667,-1.512 15.875,-2.016c5.207,-0.504 9.827,-1.26 13.859,-2.268c4.031,-1.008 7.223,-2.478 9.575,-4.41c2.351,-1.931 3.443,-4.745 3.275,-8.441c0,-3.863 -0.63,-6.929 -1.889,-9.197c-1.26,-2.268 -2.94,-4.032 -5.04,-5.291c-2.1,-1.26 -4.536,-2.1 -7.307,-2.52c-2.772,-0.42 -5.754,-0.63 -8.946,-0.63c-7.055,-0 -12.598,1.512 -16.63,4.535c-4.032,3.024 -6.383,8.064 -7.055,15.119l-35.781,0Zm82.648,26.458c-1.511,1.343 -3.401,2.393 -5.669,3.149c-2.268,0.756 -4.704,1.386 -7.307,1.89c-2.604,0.504 -5.334,0.924 -8.19,1.26c-2.855,0.336 -5.711,0.756 -8.567,1.26c-2.688,0.504 -5.333,1.176 -7.937,2.016c-2.604,0.84 -4.872,1.974 -6.804,3.401c-1.931,1.428 -3.485,3.234 -4.661,5.418c-1.176,2.184 -1.764,4.955 -1.764,8.315c0,3.192 0.588,5.88 1.764,8.063c1.176,2.184 2.772,3.906 4.787,5.166c2.016,1.26 4.368,2.142 7.056,2.646c2.688,0.504 5.459,0.756 8.315,0.756c7.055,-0 12.515,-1.176 16.379,-3.528c3.863,-2.352 6.719,-5.166 8.567,-8.441c1.848,-3.276 2.981,-6.594 3.401,-9.953c0.42,-3.36 0.63,-6.048 0.63,-8.064l0,-13.354Zm64.506,-66.522l33.765,-0l0,17.638l0.504,0c4.704,-6.719 10.373,-11.927 17.009,-15.622c6.635,-3.696 14.236,-5.544 22.804,-5.544c8.231,0 15.748,1.596 22.552,4.788c6.803,3.191 11.968,8.819 15.496,16.882c3.864,-5.711 9.113,-10.751 15.749,-15.119c6.635,-4.367 14.488,-6.551 23.56,-6.551c6.887,0 13.27,0.84 19.15,2.52c5.879,1.68 10.919,4.367 15.118,8.063c4.2,3.696 7.476,8.525 9.828,14.489c2.351,5.963 3.527,13.145 3.527,21.544l0,87.184l-35.781,-0l0,-73.829c0,-4.368 -0.168,-8.484 -0.503,-12.347c-0.336,-3.864 -1.26,-7.224 -2.772,-10.079c-1.512,-2.856 -3.738,-5.124 -6.678,-6.804c-2.939,-1.68 -6.929,-2.52 -11.969,-2.52c-5.039,0 -9.113,0.966 -12.22,2.898c-3.108,1.932 -5.544,4.452 -7.308,7.559c-1.764,3.108 -2.939,6.636 -3.527,10.584c-0.588,3.947 -0.882,7.937 -0.882,11.968l-0,72.57l-35.781,-0l-0,-73.074c-0,-3.863 -0.084,-7.685 -0.252,-11.464c-0.168,-3.78 -0.882,-7.266 -2.142,-10.458c-1.26,-3.191 -3.36,-5.753 -6.299,-7.685c-2.94,-1.932 -7.266,-2.898 -12.977,-2.898c-1.68,0 -3.906,0.378 -6.677,1.134c-2.772,0.756 -5.46,2.184 -8.064,4.284c-2.603,2.1 -4.829,5.123 -6.677,9.071c-1.848,3.948 -2.772,9.113 -2.772,15.497l0,75.593l-35.781,-0l0,-130.272Zm256.765,73.829c0.504,11.591 3.444,19.99 8.819,25.198c5.376,5.207 13.103,7.811 23.182,7.811c7.223,-0 13.439,-1.806 18.646,-5.418c5.208,-3.611 8.399,-7.433 9.575,-11.465l31.497,0c-5.039,15.623 -12.766,26.794 -23.181,33.513c-10.415,6.72 -23.014,10.079 -37.797,10.079c-10.247,0 -19.486,-1.637 -27.717,-4.913c-8.232,-3.276 -15.203,-7.937 -20.914,-13.985c-5.712,-6.047 -10.122,-13.271 -13.229,-21.67c-3.108,-8.399 -4.662,-17.638 -4.662,-27.717c0,-9.743 1.596,-18.815 4.788,-27.214c3.191,-8.399 7.727,-15.664 13.606,-21.796c5.88,-6.131 12.893,-10.961 21.041,-14.488c8.147,-3.528 17.176,-5.292 27.087,-5.292c11.087,0 20.746,2.142 28.977,6.425c8.232,4.284 14.993,10.038 20.285,17.261c5.291,7.223 9.113,15.454 11.465,24.694c2.351,9.239 3.191,18.898 2.519,28.977l-93.987,-0Zm58.207,-22.678c-1.68,-9.071 -4.662,-15.959 -8.946,-20.662c-4.283,-4.704 -10.793,-7.055 -19.528,-7.055c-5.711,-0 -10.457,0.965 -14.237,2.897c-3.779,1.932 -6.803,4.326 -9.071,7.182c-2.267,2.855 -3.863,5.879 -4.787,9.071c-0.924,3.192 -1.47,6.047 -1.638,8.567l58.207,0Zm-764.494,-0.178l-20.384,-0l0,-31.841l20.384,0c8.792,0 15.92,-7.127 15.92,-15.92l0,-15.92c0,-26.378 21.383,-47.761 47.761,-47.761l44.842,0l-0,-15.92l55.149,31.84l-55.149,31.841l-0,-15.92l-44.842,-0c-8.793,-0 -15.92,7.127 -15.92,15.92l-0,31.84l45.962,0l-0,-15.92l55.149,31.841l-55.149,31.84l-0,-15.92l-45.962,-0l-0,31.84c-0,8.793 7.127,15.92 15.92,15.92l44.842,0l-0,-15.92l55.149,31.841l-55.149,31.84l-0,-15.92l-44.842,-0c-26.378,-0 -47.761,-21.383 -47.761,-47.761l0,-15.92c0,-8.793 -7.128,-15.92 -15.92,-15.92Z" style="fill:#09090b;"/></svg>